<svg width="38" height="48" viewBox="0 0 38 48" fill="none" xmlns="http://www.w3.org/2000/svg">
<g id="Icon">
<path d="M24.6596 16.7587H36.3925C37.0387 16.8555 37.6669 16.499 37.9044 15.9006C38.1419 15.3022 37.9253 14.622 37.383 14.2633L23.2882 0.5391C22.9018 0.0514001 22.2352 -0.128969 21.6492 0.095596C21.0632 0.320161 20.6969 0.896313 20.7486 1.51227V13.0406C20.748 14.0487 21.164 15.0138 21.9014 15.7148C22.6387 16.4157 23.6342 16.7925 24.6596 16.7587Z" fill="#D2DE32"/>
<path d="M21.6882 29.6844C22.9476 31.1932 22.9476 33.3658 21.6882 34.8746L15.517 41.3625C15.2952 41.6095 14.9761 41.7511 14.6408 41.7511C14.3055 41.7511 13.9864 41.6095 13.7647 41.3625L7.6696 34.8746C6.40017 33.3694 6.40017 31.1897 7.6696 29.6844C8.18144 29.0883 8.93295 28.7419 9.72668 28.7362C10.5189 28.7484 11.2678 29.0936 11.7838 29.6844L13.2059 31.2814C13.572 31.6812 14.0935 31.9094 14.6408 31.9094C15.1881 31.9094 15.7097 31.6812 16.0757 31.2814L17.4979 29.6844C18.0089 29.062 18.7791 28.7001 19.593 28.7001C20.407 28.7001 21.1772 29.062 21.6882 29.6844Z" fill="#D2DE32"/>
<path fill-rule="evenodd" clip-rule="evenodd" d="M24.4056 19.5035H36.5449C37.2462 19.5035 37.8147 20.0621 37.8147 20.7512V38.0187C37.8147 43.5312 33.2666 48 27.6563 48H10.1584C4.54808 48 0 43.5312 0 38.0187V10.171C0 4.65852 4.54808 0.189756 10.1584 0.189756H16.9392C17.6348 0.203031 18.1954 0.753925 18.209 1.43741V13.365C18.2022 14.9864 18.8513 16.5441 20.0134 17.6953C21.1755 18.8465 22.7554 19.4969 24.4056 19.5035ZM18.2851 43.8578L24.4564 37.37C27.0238 34.4546 27.0238 30.1294 24.4564 27.214C23.2003 25.8583 21.4208 25.0856 19.5549 25.0856C17.6891 25.0856 15.9096 25.8583 14.6535 27.214C13.3974 25.8583 11.618 25.0856 9.75208 25.0856C7.8862 25.0856 6.10674 25.8583 4.85064 27.214C2.26853 30.1335 2.26853 34.4755 4.85064 37.3949L10.9965 43.8578C11.926 44.8733 13.2507 45.4533 14.6408 45.4533C16.0309 45.4533 17.3556 44.8733 18.2851 43.8578Z" fill="#D2DE32"/>
</g>
</svg>
