<svg width="20" height="20" fill="none" xmlns="http://www.w3.org/2000/svg">
  <path fill-rule="evenodd" clip-rule="evenodd" d="M16.475 4.325 11.558 1.6a3.15 3.15 0 0 0-3.116 0L3.525 4.325a3.217 3.217 0 0 0-1.667 2.808v5.292c.003.497.117.986.334 1.433v.042a2.675 2.675 0 0 0 .525 3.017l1.858 1.766c.405.391.946.61 1.508.609a2.192 2.192 0 0 0 1.5-.6l.775-.742c.968.545 2.15.545 3.117 0l4.917-2.725a3.217 3.217 0 0 0 1.666-2.808V7.133a3.217 3.217 0 0 0-1.583-2.808Zm-8.9 12.758-.767.734a.975.975 0 0 1-1.358 0l-1.833-1.75a1.475 1.475 0 0 1 1.041-2.5A1.5 1.5 0 0 1 5.7 14l.433.433.425-.433a1.5 1.5 0 0 1 1.042-.433 1.475 1.475 0 0 1 1.042 2.5l-1.067 1.016Zm8.258-2.916a1.967 1.967 0 0 0 1.042-1.742l-.033-5.292c0-.712-.386-1.37-1.009-1.716l-4.85-2.725a1.933 1.933 0 0 0-1.9 0L4.167 5.417c-.629.343-1.022 1-1.025 1.716v5.284c-.013.124-.013.25 0 .375a2.691 2.691 0 0 1 2.966 0 2.675 2.675 0 0 1 3.334 4.166l-.075.075c.514.171 1.075.12 1.55-.141l4.916-2.725Z" fill="#000"/>
  <path d="m14.083 6.367-3.675 2.041a.833.833 0 0 1-.833 0L5.917 6.367A.643.643 0 0 0 5.308 7.5l3.675 2.05c.126.062.257.112.392.15v1.933a.625.625 0 1 0 1.25 0V9.658c.136-.037.268-.09.392-.158l3.675-2a.625.625 0 1 0-.609-1.092v-.041Z" fill="#000"/>
</svg>