<svg width="20" height="20" viewBox="0 0 20 20" fill="none" xmlns="http://www.w3.org/2000/svg">
<path fill-rule="evenodd" clip-rule="evenodd" d="M13.7503 3.75V10.4167C13.7503 12.2576 12.2579 13.75 10.417 13.75H3.75033C1.90938 13.75 0.416992 12.2576 0.416992 10.4167V3.75C0.416992 1.90905 1.90938 0.416666 3.75033 0.416666H10.417C12.2579 0.416666 13.7503 1.90905 13.7503 3.75ZM1.66699 3.75V10.4167C1.66699 10.9692 1.88649 11.4991 2.27719 11.8898C2.66789 12.2805 3.19779 12.5 3.75033 12.5H10.417C11.5676 12.5 12.5003 11.5673 12.5003 10.4167V3.75C12.5003 2.59941 11.5676 1.66667 10.417 1.66667H3.75033C2.59973 1.66667 1.66699 2.59941 1.66699 3.75Z" fill="black"/>
<path d="M16.2503 5.625C15.907 5.62949 15.6298 5.9067 15.6253 6.25V12.9167C15.6208 14.4105 14.4109 15.6204 12.917 15.625H6.25033C5.90515 15.625 5.62533 15.9048 5.62533 16.25C5.62533 16.5952 5.90515 16.875 6.25033 16.875H12.917C15.1031 16.875 16.8753 15.1028 16.8753 12.9167V6.25C16.8708 5.9067 16.5936 5.62949 16.2503 5.625Z" fill="black"/>
</svg>
