<svg width="42" height="40" viewBox="0 0 42 40" fill="none" xmlns="http://www.w3.org/2000/svg">
<path fill-rule="evenodd" clip-rule="evenodd" d="M41.9935 10.3205C41.984 10.3609 41.984 10.4028 41.9935 10.4432C42.0067 10.6817 41.9998 10.921 41.9731 11.1584V11.4241C41.9524 12.4936 41.5555 13.5214 40.8527 14.3259L28.6296 28.3243L22.8848 34.8229C22.4639 35.2827 21.9591 35.6573 21.3976 35.9264C21.1375 36.052 20.8642 36.1479 20.5827 36.2125H20.4401L19.7271 36.3147H19.4827C19.2726 36.3349 19.0612 36.3349 18.8511 36.3147H18.5456L17.9955 36.1716L17.6899 36.0286L17.1807 35.7629C17.0944 35.7082 17.0127 35.6467 16.9362 35.579L16.5491 35.3133L13.7378 38.1335C12.7774 39.0507 11.3085 39.17 10.2135 38.4195C9.70375 38.939 9.0382 39.2764 8.31893 39.38L3.20561 39.9727C2.57735 40.0768 1.9367 39.8802 1.474 39.4413L0.536902 38.5013C-0.320587 37.3711 -0.13142 35.7627 0.96471 34.8637L3.81676 32.0028C3.02869 30.8828 3.15763 29.3566 4.12234 28.3856L6.93364 25.5655C6.83848 25.441 6.75008 25.3114 6.66881 25.1773C6.60128 25.1005 6.53997 25.0185 6.48546 24.932L6.07803 24.1146C5.91505 23.9307 5.91505 23.7468 5.91505 23.5424V23.2563C5.89419 23.0388 5.89419 22.8198 5.91505 22.6024V21.6215C5.92759 21.5886 5.92759 21.5522 5.91505 21.5193C6.12316 20.6119 6.61583 19.7954 7.32071 19.1896L27.7536 1.14494C29.564 -0.457237 32.3051 -0.367669 34.0077 1.34929L40.7508 8.05218C41.3749 8.67193 41.8065 9.45983 41.9935 10.3205ZM22.9459 21.3149L32.1132 12.1189C32.4044 11.8342 32.5686 11.4437 32.5686 11.0358C32.5686 10.6279 32.4044 10.2373 32.1132 9.9527C31.5167 9.35505 30.5503 9.35505 29.9538 9.9527L20.7865 19.1487C20.1907 19.7471 20.1907 20.7165 20.7865 21.3149C21.0714 21.6044 21.4606 21.7664 21.8662 21.7645C22.2731 21.7737 22.6651 21.6105 22.9459 21.3149Z" fill="#D2DE32"/>
</svg>
