<svg width="23" height="23" viewBox="0 0 23 23" fill="none" xmlns="http://www.w3.org/2000/svg">
<g clip-path="url(#clip0_314_7031)">
<path d="M10.1165 2.92664C10.4159 2.00538 11.7192 2.00538 12.0186 2.92664L13.3281 6.95628C13.462 7.36827 13.8459 7.64721 14.2791 7.64722L18.5162 7.64738C19.4848 7.64742 19.8876 8.88697 19.1039 9.45638L15.6762 11.947C15.3257 12.2016 15.1791 12.653 15.3129 13.065L16.6221 17.0947C16.9214 18.016 15.867 18.7821 15.0833 18.2127L11.6553 15.7224C11.3048 15.4678 10.8303 15.4678 10.4798 15.7224L7.05186 18.2127C6.26816 18.7821 5.21373 18.016 5.51304 17.0947L6.82221 13.065C6.95606 12.653 6.80941 12.2016 6.45896 11.947L3.0312 9.45638C2.24754 8.88697 2.65029 7.64742 3.61897 7.64738L7.85604 7.64722C8.28924 7.64721 8.67316 7.36827 8.80705 6.95628L10.1165 2.92664Z" fill="#D3D3D3" stroke="#D3D3D3" stroke-width="2"/>
</g>
<defs>
<clipPath id="clip0_314_7031">
<rect width="22.1351" height="22.1351" fill="white"/>
</clipPath>
</defs>
</svg>
