<svg width="20" height="20" fill="none" xmlns="http://www.w3.org/2000/svg">
  <path fill-rule="evenodd" clip-rule="evenodd" d="M7.604 10.123c0-1.287.994-2.33 2.22-2.33 1.225 0 2.219 1.043 2.219 2.33 0 1.287-.994 2.33-2.22 2.33-1.225 0-2.219-1.043-2.219-2.33Zm1.448 0c0 .448.345.81.772.81.426 0 .772-.362.772-.81 0-.447-.346-.81-.772-.81-.427 0-.772.363-.772.81Z" fill="#000"/>
  <path fill-rule="evenodd" clip-rule="evenodd" d="m14.368 5.838 4.034 3.384c.26.219.412.55.412.901s-.151.683-.412.902l-4.034 3.384c-2.658 2.228-6.43 2.228-9.09 0l-4.032-3.384c-.261-.22-.413-.55-.413-.902 0-.35.152-.682.413-.901l4.033-3.384c2.658-2.228 6.431-2.228 9.09 0Zm-8.192 7.436a5.64 5.64 0 0 0 7.295 0l3.686-3.15-3.686-3.101a5.64 5.64 0 0 0-7.295 0l-3.686 3.1 3.686 3.151Z" fill="#000"/>
</svg>