<svg width="20" height="20" fill="none" xmlns="http://www.w3.org/2000/svg">
  <path fill-rule="evenodd" clip-rule="evenodd" d="M5.475 9.517a2.5 2.5 0 0 1 1.191 1.116l2.2 4.009c.165.298.248.634.242.975l-.042 1.666a.967.967 0 0 1-.483.834.935.935 0 0 1-.442.108c-.185 0-.367-.053-.525-.15l-1.4-.833a1.95 1.95 0 0 1-.691-.734L3.333 12.5a2.567 2.567 0 0 1-.267-1.675c.064-.54.37-1.022.834-1.308a1.767 1.767 0 0 1 1.575 0Zm1.383 6.616.967.584-.009-1.15a.783.783 0 0 0-.091-.35l-2.192-4.009a1.267 1.267 0 0 0-.592-.575.633.633 0 0 0-.275-.066.441.441 0 0 0-.2.05.55.55 0 0 0-.241.408c-.038.289.02.582.166.833l2.192 3.975c.06.126.155.23.275.3Z" fill="#000"/>
  <path fill-rule="evenodd" clip-rule="evenodd" d="m11.016 1.958 5.834 5.834c.123.123.19.292.183.466v5.834a3.958 3.958 0 0 1-3.958 3.958h-2.392a.625.625 0 0 1 0-1.25h2.392a2.717 2.717 0 0 0 2.708-2.708V8.883H12.24A2.3 2.3 0 0 1 9.95 6.592V3.05H8.075a2.708 2.708 0 0 0-2.709 2.708v2.209a.625.625 0 1 1-1.25 0V5.758a3.958 3.958 0 0 1 3.959-3.983h2.5c.165 0 .324.066.441.183Zm.184 1.95v2.684c0 .575.466 1.041 1.041 1.041h2.684L11.2 3.908Z" fill="#000"/>
</svg>