<svg width="31" height="31" viewBox="0 0 31 31" fill="none" xmlns="http://www.w3.org/2000/svg">
<path fill-rule="evenodd" clip-rule="evenodd" d="M12.7936 17.5766C13.7406 17.5766 14.6435 17.9764 15.2801 18.6775C16.6196 20.18 16.6307 22.4449 15.3059 23.9604L12.193 27.3058C11.7179 27.8321 11.042 28.1325 10.333 28.1325C9.62396 28.1325 8.94812 27.8321 8.47299 27.3058L5.36007 23.9604C4.03362 22.4492 4.03362 20.1887 5.36007 18.6775C5.99661 17.9764 6.89957 17.5766 7.84653 17.5766C8.78711 17.5766 9.68427 17.971 10.3201 18.6633C10.9559 17.971 11.853 17.5766 12.7936 17.5766ZM10.7334 25.9754L13.8463 22.6429C14.4831 21.8588 14.4777 20.7342 13.8334 19.9562C13.5757 19.6485 13.195 19.4708 12.7936 19.4708C12.3923 19.4708 12.0115 19.6485 11.7538 19.9562L11.0176 20.7829C10.8356 20.9915 10.5711 21.1096 10.2942 21.1058C10.0181 21.1062 9.75498 20.9887 9.57091 20.7829L8.83466 19.9562C8.59119 19.6259 8.20524 19.4309 7.79487 19.4309C7.38449 19.4309 6.99854 19.6259 6.75507 19.9562C6.10943 20.7354 6.10943 21.8637 6.75507 22.6429L9.85507 25.9754C9.96818 26.0999 10.1262 26.1743 10.2942 26.1821C10.463 26.1772 10.6221 26.1024 10.7334 25.9754Z" fill="black"/>
<path fill-rule="evenodd" clip-rule="evenodd" d="M17.3467 3.12583L26.3884 12.1675C26.584 12.3663 26.6871 12.6381 26.6726 12.9167V21.9583C26.6726 25.3468 23.9257 28.0937 20.5372 28.0937H16.7913C16.2563 28.0937 15.8226 27.66 15.8226 27.125C15.8226 26.59 16.2563 26.1562 16.7913 26.1562H20.5372C22.8527 26.1491 24.728 24.2738 24.7351 21.9583V13.8854H19.2455C17.2837 13.8854 15.6934 12.2951 15.6934 10.3333V4.81791H12.7872C11.6693 4.81789 10.5976 5.26371 9.80961 6.05657C9.0216 6.84943 8.58236 7.92383 8.58924 9.04166V15.5C8.58924 16.035 8.15552 16.4687 7.62049 16.4687C7.08546 16.4687 6.65174 16.035 6.65174 15.5V9.04166C6.63449 7.40328 7.27328 5.82607 8.42577 4.66145C9.57826 3.49683 11.1487 2.84157 12.7872 2.84166H16.6622C16.919 2.84189 17.1652 2.9441 17.3467 3.12583ZM17.6309 6.16124V10.3333C17.645 11.2149 18.3638 11.9222 19.2455 11.9221H23.3917L17.6309 6.16124Z" fill="black"/>
</svg>
