<svg width="24" height="24" viewBox="0 0 24 24" fill="none" xmlns="http://www.w3.org/2000/svg">
<path fill-rule="evenodd" clip-rule="evenodd" d="M22.29 7.80003V7.93003C22.2717 8.43014 22.0849 8.90939 21.76 9.29003L15.7 16.16L12.91 19.33C12.4938 19.7992 11.8972 20.0684 11.27 20.07C11.1304 20.0848 10.9896 20.0848 10.85 20.07H10.79C10.6756 20.0535 10.5644 20.0198 10.46 19.97H10.35C10.2561 19.9313 10.1658 19.8845 10.08 19.83L9.98004 19.76L9.79004 19.62L8.41004 21C8.14529 21.2643 7.784 21.4088 7.41004 21.4C7.14121 21.3905 6.88083 21.3037 6.66004 21.15C6.40981 21.4042 6.08311 21.5693 5.73004 21.62L3.22004 21.91H3.07004C2.8105 21.9143 2.55949 21.8175 2.37004 21.64L1.91004 21.18C1.48912 20.627 1.58197 19.8399 2.12004 19.4L3.52004 18C3.13319 17.452 3.19649 16.7052 3.67004 16.23L5.05004 14.85C5.00333 14.7891 4.95993 14.7256 4.92004 14.66C4.88689 14.6225 4.85679 14.5824 4.83004 14.54L4.63004 14.14C4.55004 14.05 4.55004 13.96 4.55004 13.86V13.72C4.53979 13.6136 4.53979 13.5064 4.55004 13.4V12.92C4.55619 12.9039 4.55619 12.8861 4.55004 12.87C4.65219 12.426 4.89403 12.0265 5.24004 11.73L10.55 7.05003L15.27 2.90003C15.6833 2.54042 16.2122 2.34163 16.76 2.34003C17.3535 2.341 17.9222 2.57854 18.34 3.00003L21.68 6.28003C21.9864 6.58329 22.1983 6.96885 22.29 7.39003C22.2854 7.40975 22.2854 7.4303 22.29 7.45003C22.2998 7.56649 22.2998 7.68357 22.29 7.80003ZM11.24 18.63C11.4406 18.6319 11.6314 18.5438 11.76 18.39L14.48 15.26L20.58 8.34003C20.8442 8.05903 20.8442 7.62103 20.58 7.34003L17.28 4.04003C17.1395 3.89933 16.9489 3.8202 16.75 3.82003C16.5734 3.81911 16.4025 3.88317 16.27 4.00003L11.57 8.17003L6.15004 12.95C6.09031 13.0125 6.03981 13.0833 6.00004 13.16V13.21C5.986 13.2692 5.986 13.3308 6.00004 13.39C5.9849 13.4693 5.9849 13.5507 6.00004 13.63C6.05037 13.7035 6.11942 13.7622 6.20004 13.8C6.19308 13.8228 6.19308 13.8472 6.20004 13.87L10.75 18.47C10.8261 18.539 10.9142 18.5932 11.01 18.63C11.0697 18.6396 11.1304 18.6396 11.19 18.63H11.24ZM3.25004 20.39L4.11004 19.54L4.79004 20.21L3.25004 20.39ZM4.82004 17.21L7.41004 19.84L8.71004 18.51L6.11004 15.91L4.82004 17.21Z" fill="black"/>
<path d="M16.35 7.21003L11.85 11.71C11.5576 12.0028 11.5576 12.4772 11.85 12.77C11.9899 12.9117 12.181 12.991 12.38 12.99C12.5798 12.9945 12.7722 12.9147 12.91 12.77L17.41 8.27003C17.553 8.13074 17.6336 7.93961 17.6336 7.74003C17.6336 7.54044 17.553 7.34931 17.41 7.21003C17.1172 6.91757 16.6429 6.91757 16.35 7.21003Z" fill="black"/>
</svg>
