<svg width="124" height="90" viewBox="0 0 124 90" fill="none" xmlns="http://www.w3.org/2000/svg">
<path d="M123.81 69.7369C123.81 73.0807 123.05 76.0446 121.53 78.6285C120.162 81.0604 118.338 83.1123 116.058 84.7842C113.779 86.4561 111.271 87.7481 108.535 88.66C105.951 89.42 103.519 89.8 101.239 89.8C97.7432 89.8 94.1714 89.04 90.5235 87.5201C87.0277 85.8481 83.8358 83.4922 80.948 80.4524C78.0601 77.4125 75.7042 73.7647 73.8803 69.5089C72.0564 65.2531 71.1444 60.5413 71.1444 55.3735C71.1444 46.4059 72.8163 38.7302 76.1602 32.3465C79.656 25.9628 83.7598 20.643 88.4716 16.3872C93.3354 11.9794 98.2752 8.55958 103.291 6.12769C108.459 3.5438 112.715 1.71988 116.058 0.655931V7.95161C113.019 9.77552 109.751 11.7514 106.255 13.8793C102.911 16.0072 99.7951 18.5151 96.9073 21.403C94.1714 24.2909 91.8915 27.5587 90.0676 31.2066C88.2436 34.8544 87.3317 38.9582 87.3317 43.518C87.3317 45.7979 87.5597 47.6218 88.0157 48.9898C88.4716 50.3577 89.0036 51.4217 89.6116 52.1816C90.3715 52.9416 91.0555 53.4736 91.6635 53.7776C92.4235 54.0816 93.0314 54.2335 93.4874 54.2335C95.1593 54.2335 97.2112 53.7776 99.6431 52.8656C102.075 51.8017 104.355 51.2697 106.483 51.2697C108.459 51.2697 110.435 51.7257 112.411 52.6376C114.538 53.3976 116.438 54.6135 118.11 56.2855C119.782 57.8054 121.15 59.7053 122.214 61.9852C123.278 64.2651 123.81 66.849 123.81 69.7369ZM52.7057 69.2809C52.7057 72.6247 51.9458 75.5886 50.4258 78.1725C49.0579 80.7564 47.234 82.8843 44.9541 84.5562C42.6742 86.0761 40.1663 87.2921 37.4304 88.204C34.8465 88.964 32.3386 89.344 29.9067 89.344C26.4109 89.344 22.9151 88.584 19.4192 87.0641C15.9234 85.3922 12.7315 83.1123 9.84364 80.2244C6.95577 77.1845 4.59987 73.5367 2.77595 69.2809C1.10403 65.0251 0.268066 60.3133 0.268066 55.1455C0.268066 46.1779 1.93999 38.5022 5.28384 32.1185C8.77969 25.5828 12.8835 20.1871 17.5953 15.9313C22.4591 11.5234 27.3989 8.1036 32.4146 5.67171C37.4304 3.08782 41.6102 1.2639 44.9541 0.199951V7.72362C41.9142 9.54753 38.6464 11.5234 35.1505 13.6514C31.8067 15.7793 28.6908 18.2871 25.8029 21.175C23.067 24.0629 20.7112 27.3307 18.7352 30.9786C16.9113 34.4744 15.9994 38.5782 15.9994 43.29C15.9994 47.5458 16.8353 50.3577 18.5073 51.7257C20.3312 53.0936 21.6991 53.7776 22.6111 53.7776C24.131 53.7776 26.1069 53.3216 28.5388 52.4096C30.9707 51.4977 33.2506 51.0417 35.3785 51.0417C37.3544 51.0417 39.3303 51.4977 41.3062 52.4096C43.4341 53.1696 45.3341 54.3855 47.006 56.0575C48.6779 57.5774 50.0458 59.4773 51.1098 61.7572C52.1737 63.8851 52.7057 66.393 52.7057 69.2809Z" fill="#001AFF" fill-opacity="0.05"/>
</svg>
