<svg width="20" height="20" fill="none" xmlns="http://www.w3.org/2000/svg">
  <path d="m9.426 13.783-3.109-3.1a.7.7 0 0 1 0-.991.717.717 0 0 1 .992 0l1.908 1.916V3.2a.7.7 0 1 1 1.4 0v8.408l1.909-1.916a.717.717 0 0 1 .992 0 .7.7 0 0 1 0 .991l-3.109 3.1a.675.675 0 0 1-.492.209.658.658 0 0 1-.491-.209Z" fill="#000"/>
  <path d="M14.268 7.017h1.008A3.808 3.808 0 0 1 19 10.892v3.175a3.808 3.808 0 0 1-3.725 3.875l-10.717-.067A3.808 3.808 0 0 1 .834 14v-3.175a3.808 3.808 0 0 1 3.725-3.9h1.008a.7.7 0 1 1 0 1.4H4.56a2.4 2.4 0 0 0-2.325 2.5v3.15a2.4 2.4 0 0 0 2.325 2.5l10.717.117a2.4 2.4 0 0 0 2.325-2.5v-3.175a2.4 2.4 0 0 0-2.325-2.5h-1.008a.7.7 0 1 1 0-1.4Z" fill="#000"/>
</svg>