<svg width="22" height="22" viewBox="0 0 22 22" fill="none" xmlns="http://www.w3.org/2000/svg">
<path d="M17.2245 6.41666C16.8245 6.41666 16.5003 6.74088 16.5003 7.14083V15.2442C16.5003 16.9503 15.1173 18.3333 13.4112 18.3333H8.20449C6.49839 18.3333 5.11533 16.9503 5.11533 15.2442V7.14083C5.11533 6.74088 4.79111 6.41666 4.39116 6.41666C3.99121 6.41666 3.66699 6.74088 3.66699 7.14083V15.2442C3.69213 17.7575 5.73681 19.7818 8.25033 19.7817H13.457C15.9526 19.7568 17.9697 17.7398 17.9945 15.2442V7.14083C17.9949 6.94056 17.9123 6.74906 17.7665 6.61185C17.6206 6.47465 17.4244 6.40399 17.2245 6.41666Z" fill="black"/>
<path fill-rule="evenodd" clip-rule="evenodd" d="M17.2245 5.11499H4.39116C3.99121 5.11499 3.66699 4.79077 3.66699 4.39083C3.66699 3.99088 3.99121 3.66666 4.39116 3.66666H6.82033L7.90199 2.49333C8.31547 2.07295 8.87985 1.83532 9.46949 1.83333H12.1462C12.7272 1.83332 13.2845 2.06414 13.6953 2.47499L14.7953 3.66666H17.2245C17.6244 3.66666 17.9487 3.99088 17.9487 4.39083C17.9487 4.79077 17.6244 5.11499 17.2245 5.11499ZM12.1462 3.28166H9.46949C9.28624 3.28172 9.10964 3.3504 8.97449 3.47416L8.80033 3.65749H12.8153L12.6412 3.47416C12.507 3.34882 12.3298 3.27989 12.1462 3.28166Z" fill="black"/>
<path d="M7.37032 8.05749V10.8075C7.37032 11.1872 7.67813 11.495 8.05782 11.495C8.43752 11.495 8.74532 11.1872 8.74532 10.8075V8.05749C8.74532 7.6778 8.43752 7.36999 8.05782 7.36999C7.67813 7.36999 7.37032 7.6778 7.37032 8.05749Z" fill="black"/>
<path d="M10.1203 8.05749V15.3908C10.1203 15.7705 10.4281 16.0783 10.8078 16.0783C11.1875 16.0783 11.4953 15.7705 11.4953 15.3908V8.05749C11.4953 7.6778 11.1875 7.36999 10.8078 7.36999C10.4281 7.36999 10.1203 7.6778 10.1203 8.05749Z" fill="black"/>
<path d="M12.8703 8.05749V10.8075C12.8703 11.1872 13.1781 11.495 13.5578 11.495C13.9375 11.495 14.2453 11.1872 14.2453 10.8075V8.05749C14.2453 7.6778 13.9375 7.36999 13.5578 7.36999C13.1781 7.36999 12.8703 7.6778 12.8703 8.05749Z" fill="black"/>
</svg>
