<svg width="317" height="18" fill="none" xmlns="http://www.w3.org/2000/svg">
  <path fill-rule="evenodd" clip-rule="evenodd" d="M150.377.046c-19.699.376-57.523 3.837-93.101 8.52l-8.4 1.105c-23.606 3.112-36.302 5.075-45.188 6.986-3.469.745-3.766.836-3.675 1.114.134.407.699.344 7.134-.794 6.66-1.177 12.628-2.032 28.998-4.153 54.71-7.089 80.264-9.688 108.927-11.078 5.617-.272 14.588-.225 14.588.077 0 .404-5.627 1.78-18.655 4.563-16.028 3.423-25.786 5.694-26.65 6.202-1.476.868.148 1.495 3.662 1.413 2.008-.047 2.464-.083 11.671-.909 26.433-2.372 43.327-3.576 66.223-4.72 34.866-1.74 57.082-2.383 98.848-2.858 15.007-.17 15.783-.194 18.553-.567 1.068-.144 2.343-.285 2.834-.313 1.151-.066 1.137-.15-.035-.211-.511-.027-1.684-.156-2.608-.287-2.278-.321-3.789-.338-16.799-.187-43.616.508-66.566 1.157-99.821 2.824-17.49.877-25.283 1.353-38.018 2.324-8.707.664-31.687 2.596-34.906 2.935-1.757.184 5.867-1.56 19.259-4.407 16.94-3.601 20.313-4.58 20.329-5.895.017-1.484-3.062-1.877-13.17-1.684Z" fill="#D2DE32"/>
</svg>